<svg width="71" height="109" viewBox="0 0 71 109" fill="none" xmlns="http://www.w3.org/2000/svg">
<path d="M45.8114 22.691C75.3114 -6.80899 79.3118 -8.30905 52.8118 22.691C26.3118 53.691 12.3117 76.691 22.8117 91.191C33.3117 105.691 90.8113 86.191 59.8113 99.691C28.8113 113.191 15.3115 106.691 15.3115 106.691C15.3115 106.691 7.4914 105.191 3.31151 95.691C-0.868382 86.191 0.928846 74.691 5.3115 66.691C9.69415 58.691 16.3114 52.191 45.8114 22.691Z" fill="url(#paint0_radial_23430_123)"/>
<path d="M64.8115 14.191H68.8115C68.8115 14.191 68.8115 54.691 68.8115 77.191C68.8115 99.691 64.8115 77.191 64.8115 77.191V14.191Z" fill="url(#paint1_linear_23430_123)"/>
<path d="M64.5652 56.1913H16.95C16.8255 56.1717 -21.1257 50.1913 16.95 50.1913H64.5652V56.1913Z" fill="url(#paint2_linear_23430_123)"/>
<defs>
<radialGradient id="paint0_radial_23430_123" cx="0" cy="0" r="1" gradientUnits="userSpaceOnUse" gradientTransform="translate(27.5 46.5) rotate(110.225) scale(50.6211)">
<stop offset="0.192308" stop-color="#0078D4"/>
<stop offset="0.990385" stop-color="#0B0A3F"/>
</radialGradient>
<linearGradient id="paint1_linear_23430_123" x1="66.8115" y1="14.191" x2="66.8115" y2="87.191" gradientUnits="userSpaceOnUse">
<stop stop-color="#0078D4"/>
<stop offset="0.634615" stop-color="#003E6E"/>
</linearGradient>
<linearGradient id="paint2_linear_23430_123" x1="-0.000244141" y1="53.1913" x2="64.5652" y2="53.1913" gradientUnits="userSpaceOnUse">
<stop stop-color="#0E0D4C"/>
<stop offset="0.658654" stop-color="#0078D4"/>
</linearGradient>
</defs>
</svg>
