<svg width="462" height="109" viewBox="0 0 462 109" fill="none" xmlns="http://www.w3.org/2000/svg">
<path d="M45.8114 22.691C75.3114 -6.80899 79.3118 -8.30905 52.8118 22.691C26.3118 53.691 12.3117 76.691 22.8117 91.191C33.3117 105.691 90.8113 86.191 59.8113 99.691C28.8113 113.191 15.3115 106.691 15.3115 106.691C15.3115 106.691 7.4914 105.191 3.31151 95.691C-0.868382 86.191 0.928846 74.691 5.3115 66.691C9.69415 58.691 16.3114 52.191 45.8114 22.691Z" fill="url(#paint0_radial_23431_95)"/>
<path d="M65 14H75C75 14 75 54.5 75 77C75 99.5 65 77 65 77V14Z" fill="url(#paint1_linear_23431_95)"/>
<path d="M64.5652 58.999H16.95C16.8056 58.9656 -21.1157 50.1905 16.95 50.1904H64.5652V58.999Z" fill="url(#paint2_linear_23431_95)"/>
<path d="M85.805 56.08C85.805 50.1867 87.08 44.945 89.63 40.355C92.18 35.7083 95.7217 32.11 100.255 29.56C104.845 26.9533 110.03 25.65 115.81 25.65C122.893 25.65 128.957 27.52 134 31.26C139.043 35 142.415 40.1 144.115 46.56H128.135C126.945 44.0667 125.245 42.1683 123.035 40.865C120.882 39.5617 118.417 38.91 115.64 38.91C111.163 38.91 107.537 40.4683 104.76 43.585C101.983 46.7017 100.595 50.8667 100.595 56.08C100.595 61.2933 101.983 65.4583 104.76 68.575C107.537 71.6917 111.163 73.25 115.64 73.25C118.417 73.25 120.882 72.5983 123.035 71.295C125.245 69.9917 126.945 68.0933 128.135 65.6H144.115C142.415 72.06 139.043 77.16 134 80.9C128.957 84.5833 122.893 86.425 115.81 86.425C110.03 86.425 104.845 85.15 100.255 82.6C95.7217 79.9933 92.18 76.395 89.63 71.805C87.08 67.215 85.805 61.9733 85.805 56.08ZM167.551 37.975V50.045H187.016V61.265H167.551V74.355H189.566V86H153.016V26.33H189.566V37.975H167.551ZM252.382 86H237.847L213.537 49.195V86H199.002V26.33H213.537L237.847 63.305V26.33H252.382V86ZM291.138 86.595C285.528 86.595 280.372 85.2917 275.668 82.685C271.022 80.0783 267.31 76.4517 264.533 71.805C261.813 67.1017 260.453 61.8317 260.453 55.995C260.453 50.1583 261.813 44.9167 264.533 40.27C267.31 35.6233 271.022 31.9967 275.668 29.39C280.372 26.7833 285.528 25.48 291.138 25.48C296.748 25.48 301.877 26.7833 306.523 29.39C311.227 31.9967 314.91 35.6233 317.573 40.27C320.293 44.9167 321.653 50.1583 321.653 55.995C321.653 61.8317 320.293 67.1017 317.573 71.805C314.853 76.4517 311.17 80.0783 306.523 82.685C301.877 85.2917 296.748 86.595 291.138 86.595ZM291.138 73.335C295.898 73.335 299.695 71.7483 302.528 68.575C305.418 65.4017 306.863 61.2083 306.863 55.995C306.863 50.725 305.418 46.5317 302.528 43.415C299.695 40.2417 295.898 38.655 291.138 38.655C286.322 38.655 282.468 40.2133 279.578 43.33C276.745 46.4467 275.328 50.6683 275.328 55.995C275.328 61.265 276.745 65.4867 279.578 68.66C282.468 71.7767 286.322 73.335 291.138 73.335ZM385.755 26.33L364.59 86H346.4L325.235 26.33H340.705L355.495 71.38L370.37 26.33H385.755ZM428.975 75.46H406.705L403.135 86H387.92L409.51 26.33H426.34L447.93 86H432.545L428.975 75.46ZM425.235 64.24L417.84 42.395L410.53 64.24H425.235Z" fill="url(#paint3_linear_23431_95)"/>
<defs>
<radialGradient id="paint0_radial_23431_95" cx="0" cy="0" r="1" gradientUnits="userSpaceOnUse" gradientTransform="translate(27.5 46.5) rotate(110.225) scale(50.6211)">
<stop offset="0.192308" stop-color="#0078D4"/>
<stop offset="0.990385" stop-color="#C8C7D9"/>
</radialGradient>
<linearGradient id="paint1_linear_23431_95" x1="70" y1="14" x2="70" y2="87" gradientUnits="userSpaceOnUse">
<stop stop-color="#0078D4"/>
<stop offset="0.634615" stop-color="#C5D4E0"/>
</linearGradient>
<linearGradient id="paint2_linear_23431_95" x1="-0.000244141" y1="54.5947" x2="64.5654" y2="54.5947" gradientUnits="userSpaceOnUse">
<stop stop-color="#0E0D4C"/>
<stop offset="0.658654" stop-color="#0078D4"/>
</linearGradient>
<linearGradient id="paint3_linear_23431_95" x1="267" y1="14" x2="267" y2="87" gradientUnits="userSpaceOnUse">
<stop offset="0.0240385" stop-color="#888888"/>
<stop offset="0.985577" stop-color="#FFF9F9"/>
</linearGradient>
</defs>
</svg>
